<?xml version="1.0" encoding="UTF-8"?>
<!DOCTYPE svg PUBLIC "-//W3C//DTD SVG 1.1//EN" "http://www.w3.org/Graphics/SVG/1.1/DTD/svg11.dtd">
<!-- Creator: CorelDRAW 2021 (64-Bit) -->
<svg xmlns="http://www.w3.org/2000/svg" xml:space="preserve" width="156px" height="50px" version="1.1" style="shape-rendering:geometricPrecision; text-rendering:geometricPrecision; image-rendering:optimizeQuality; fill-rule:evenodd; clip-rule:evenodd"
viewBox="0 0 138.59 44.45"
 xmlns:xlink="http://www.w3.org/1999/xlink"
 xmlns:xodm="http://www.corel.com/coreldraw/odm/2003">
 <defs>
  <style type="text/css">
   <![CDATA[
    .fil0 {fill:#5BBFCC;fill-rule:nonzero}
    .fil1 {fill:#868685;fill-rule:nonzero}
   ]]>
  </style>
 </defs>
 <g id="Capa_x0020_1">
  <metadata id="CorelCorpID_0Corel-Layer"/>
  <g id="mibilogo.svg">
   <g id="Capa_1-2" data-name="Capa 1">
    <g>
     <path class="fil0" d="M22.22 0c-12.29,0 -22.22,9.97 -22.22,22.22 0,12.25 9.93,22.23 22.22,22.23 12.25,0 22.23,-9.98 22.23,-22.23 0,-12.25 -9.98,-22.22 -22.23,-22.22zm13.39 13.12c0,3.02 -2.45,5.47 -5.47,5.47 -2.97,0 -5.42,-2.45 -5.42,-5.47 0,-3.01 2.45,-5.42 5.42,-5.42 3.02,0 5.47,2.41 5.47,5.42zm-10.41 -8.57c1.27,-0.09 2.49,-0.04 3.63,0.13 -1.14,0.13 -2.19,0.48 -3.15,1.05 -2.98,0 -7.22,3.59 -7.22,7.79 0,3.67 2.45,6.74 5.73,7.57 1.31,0.48 3.15,0.74 5.82,0.74 4.77,0 8.62,-3.76 8.71,-8.49 0.08,0.27 0.21,0.53 0.3,0.83 0,0.05 0,0.09 0,0.14 0.61,6.03 -4.64,11.5 -11.72,12.16 -7.05,0.7 -13.13,-3.68 -13.83,-9.76 -0.74,-6.65 4.16,-11.55 11.73,-12.16l0 0 0 0zm-15.53 18.64c0.79,1.79 1.97,3.36 3.45,4.63 0,0 1.23,6.74 5.25,10.28 0,0 -8.4,-4.46 -8.7,-14.91l0 0 0 0zm-6.13 -0.97c0,-8.57 5.65,-15.75 13.39,-17.98 -0.52,0.31 -1.05,0.62 -1.57,0.97 -5.82,3.32 -8.62,8.61 -9.63,15.04 -0.48,9.1 2.98,15.4 10.37,18.95l-0.09 0.04c-7.26,-2.32 -12.47,-8.84 -12.47,-17.02l0 0 0 0zm26.25 16.58c-1.57,0.53 -7.87,1.93 -12.77,-8.57 2.23,0.96 4.81,1.49 7.7,1.49 7.3,0 13.51,-4.38 15.61,-10.42 0,0.31 0,0.62 0,0.92 0,7.7 -3.71,13.91 -10.54,16.58l0 0 0 0z"/>
     <g>
      <rect class="fil1" x="96.9" y="14.13" width="5.86" height="23.05"/>
      <rect class="fil1" x="132.38" y="14.13" width="5.86" height="23.05"/>
      <circle class="fil1" cx="99.83" cy="8.27" r="3.24"/>
      <circle class="fil1" cx="135.35" cy="8.27" r="3.24"/>
      <path class="fil1" d="M118.55 13.61c-2.58,0 -4.98,0.83 -6.91,2.27l0 -10.63 -5.86 0 0 31.93 5.86 0 0 -1.75c1.93,1.45 4.33,2.28 6.91,2.28 6.57,0 11.86,-5.38 11.86,-12.03 0,-6.65 -5.29,-12.08 -11.86,-12.08l0 0 0 0.01zm-0.43 18.89c-3.99,0 -6.48,-2.27 -6.48,-2.27l0 -9.41c0,0 2.71,-1.57 6.48,-1.57 3.71,0 6.47,2.97 6.47,6.6 0,3.68 -2.93,6.65 -6.47,6.65l0 0z"/>
      <path class="fil1" d="M94.62 23.32c-0.3,-5.25 -2.53,-9.36 -9.66,-9.41 -4.73,0 -5.6,1.53 -7.53,3.11 -1.49,-1.97 -3.72,-3.11 -7.26,-3.11 -3.24,-0.04 -4.68,0.7 -6.78,2.01l0 -1.79 -5.86 0 0 23.05 5.86 0 0 -16.18 0 0c1.31,-1.01 2.89,-1.45 5.25,-1.75 2.32,0.04 4.11,0.79 4.5,4.07l0 13.86 5.87 0 0 -16.4c1.57,-1.05 2.4,-1.58 4.5,-1.53 3.02,-0.05 4.99,1.66 5.21,4.07l0 0 0 13.86 5.9 0 0 -13.86 0 0 0 0z"/>
     </g>
    </g>
   </g>
  </g>
 </g>
</svg>
